<?xml version="1.0" encoding="UTF-8" standalone="no"?><!DOCTYPE svg PUBLIC "-//W3C//DTD SVG 1.1//EN" "http://www.w3.org/Graphics/SVG/1.1/DTD/svg11.dtd"><svg width="100%" height="100%" viewBox="0 0 45 52" version="1.1" xmlns="http://www.w3.org/2000/svg" xmlns:xlink="http://www.w3.org/1999/xlink" xml:space="preserve" xmlns:serif="http://www.serif.com/" style="fill-rule:evenodd;clip-rule:evenodd;stroke-linejoin:round;stroke-miterlimit:2;"><path d="M29.854,24.429c0,1.568 -1.157,2.854 -2.623,2.854c-1.44,0 -2.622,-1.286 -2.622,-2.854c0,-1.569 1.157,-2.855 2.622,-2.855c1.466,0 2.623,1.286 2.623,2.855Zm-12.008,-2.855c-1.466,0 -2.623,1.286 -2.623,2.855c0,1.568 1.183,2.854 2.623,2.854c1.465,0 2.623,-1.286 2.623,-2.854c0.025,-1.569 -1.158,-2.855 -2.623,-2.855Zm27.154,-16.277l0,46.132c-6.478,-5.725 -4.406,-3.83 -11.931,-10.826l1.362,4.757l-29.16,0c-2.905,0 -5.271,-2.366 -5.271,-5.297l0,-34.766c0,-2.931 2.366,-5.297 5.271,-5.297l34.458,0c2.905,0 5.271,2.366 5.271,5.297Zm-7.329,24.377c0,-8.28 -3.702,-14.991 -3.702,-14.991c-3.703,-2.777 -7.226,-2.7 -7.226,-2.7l-0.36,0.411c4.371,1.337 6.403,3.266 6.403,3.266c-6.109,-3.348 -13.284,-3.348 -19.209,-0.746c-0.951,0.437 -1.517,0.746 -1.517,0.746c0,0 2.134,-2.031 6.763,-3.369l-0.257,-0.308c0,0 -3.523,-0.077 -7.226,2.7c0,0 -3.703,6.711 -3.703,14.991c0,0 2.16,3.729 7.843,3.909c0,0 0.951,-1.157 1.723,-2.134c-3.266,-0.978 -4.5,-3.035 -4.5,-3.035c0.378,0.265 1.002,0.608 1.054,0.643c4.34,2.431 10.506,3.227 16.046,0.9c0.9,-0.334 1.903,-0.823 2.957,-1.517c0,0 -1.286,2.109 -4.654,3.06c0.771,0.977 1.697,2.083 1.697,2.083c5.683,-0.18 7.868,-3.909 7.868,-3.909Z" style="fill:#fff;fill-rule:nonzero;"/></svg>