<?xml version="1.0" encoding="UTF-8" standalone="no"?><!DOCTYPE svg PUBLIC "-//W3C//DTD SVG 1.1//EN" "http://www.w3.org/Graphics/SVG/1.1/DTD/svg11.dtd"><svg width="100%" height="100%" viewBox="0 0 45 45" version="1.1" xmlns="http://www.w3.org/2000/svg" xmlns:xlink="http://www.w3.org/1999/xlink" xml:space="preserve" xmlns:serif="http://www.serif.com/" style="fill-rule:evenodd;clip-rule:evenodd;stroke-linejoin:round;stroke-miterlimit:2;"><path d="M18.984,0l7.032,0c1.169,0 2.109,0.94 2.109,2.109l0,14.766l7.708,0c1.564,0 2.347,1.89 1.239,2.997l-13.368,13.377c-0.659,0.659 -1.74,0.659 -2.399,0l-13.386,-13.377c-1.107,-1.107 -0.325,-2.997 1.239,-2.997l7.717,0l0,-14.766c0,-1.169 0.94,-2.109 2.109,-2.109Zm26.016,33.047l0,9.844c0,1.169 -0.94,2.109 -2.109,2.109l-40.782,0c-1.169,0 -2.109,-0.94 -2.109,-2.109l0,-9.844c0,-1.169 0.94,-2.11 2.109,-2.11l12.894,0l4.307,4.307c1.766,1.767 4.614,1.767 6.38,0l4.307,-4.307l12.894,0c1.169,0 2.109,0.941 2.109,2.11Zm-10.898,7.734c0,-0.967 -0.791,-1.758 -1.758,-1.758c-0.967,0 -1.758,0.791 -1.758,1.758c0,0.967 0.791,1.758 1.758,1.758c0.967,0 1.758,-0.791 1.758,-1.758Zm5.625,0c0,-0.967 -0.791,-1.758 -1.758,-1.758c-0.967,0 -1.758,0.791 -1.758,1.758c0,0.967 0.791,1.758 1.758,1.758c0.967,0 1.758,-0.791 1.758,-1.758Z" style="fill:#fff;fill-rule:nonzero;"/></svg>