<?xml version="1.0" encoding="UTF-8" standalone="no"?><!DOCTYPE svg PUBLIC "-//W3C//DTD SVG 1.1//EN" "http://www.w3.org/Graphics/SVG/1.1/DTD/svg11.dtd"><svg width="100%" height="100%" viewBox="0 0 45 36" version="1.1" xmlns="http://www.w3.org/2000/svg" xmlns:xlink="http://www.w3.org/1999/xlink" xml:space="preserve" xmlns:serif="http://www.serif.com/" style="fill-rule:evenodd;clip-rule:evenodd;stroke-linejoin:round;stroke-miterlimit:2;"><path d="M3.375,0c-1.861,0 -3.375,1.514 -3.375,3.375l0,4.5c0,0.622 0.503,1.125 1.125,1.125l5.625,0l0,-5.625c0,-1.861 -1.514,-3.375 -3.375,-3.375Zm14.625,29.009l0,-4.259l20.25,0l0,-18c0,-3.722 -3.028,-6.75 -6.75,-6.75l-23.654,0c0.714,0.943 1.154,2.104 1.154,3.375l0,25.875c0,2.733 2.436,4.897 5.256,4.438c2.213,-0.36 3.744,-2.437 3.744,-4.679Zm2.25,-2.009l0,2.25c0,3.722 -3.028,6.75 -6.75,6.75l23.625,0c4.35,0 7.875,-3.525 7.875,-7.875c0,-0.622 -0.503,-1.125 -1.125,-1.125l-23.625,0Z" style="fill:#fff;fill-rule:nonzero;"/></svg>