<?xml version="1.0" encoding="UTF-8" standalone="no"?><!DOCTYPE svg PUBLIC "-//W3C//DTD SVG 1.1//EN" "http://www.w3.org/Graphics/SVG/1.1/DTD/svg11.dtd"><svg width="100%" height="100%" viewBox="0 0 45 38" version="1.1" xmlns="http://www.w3.org/2000/svg" xmlns:xlink="http://www.w3.org/1999/xlink" xml:space="preserve" xmlns:serif="http://www.serif.com/" style="fill-rule:evenodd;clip-rule:evenodd;stroke-linejoin:round;stroke-miterlimit:2;"><path d="M43.977,8.664l-4.741,-7.568c-0.424,-0.68 -1.176,-1.096 -1.98,-1.096l-29.512,0c-0.804,0 -1.557,0.416 -1.98,1.096l-4.741,7.568c-2.448,3.908 -0.278,9.343 4.295,9.964c0.329,0.044 0.665,0.066 1.001,0.066c2.162,0 4.076,-0.95 5.391,-2.418c1.315,1.468 3.236,2.418 5.391,2.418c2.163,0 4.077,-0.95 5.392,-2.418c1.315,1.468 3.236,2.418 5.391,2.418c2.162,0 4.076,-0.95 5.391,-2.418c1.322,1.468 3.236,2.418 5.391,2.418c0.344,0 0.672,-0.022 1.001,-0.066c4.588,-0.613 6.765,-6.048 4.31,-9.964Zm-5.296,12.375c-0.731,0 -1.454,-0.11 -2.155,-0.278l0,7.291l-28.052,0l0,-7.291c-0.701,0.161 -1.424,0.278 -2.155,0.278c-0.438,0 -0.884,-0.029 -1.315,-0.088c-0.409,-0.058 -0.811,-0.153 -1.198,-0.263l0,14.377c0,1.293 1.045,2.338 2.338,2.338l32.727,0c1.293,0 2.338,-1.045 2.338,-2.338l0,-14.377c-0.395,0.117 -0.789,0.212 -1.198,0.263c-0.446,0.059 -0.884,0.088 -1.33,0.088Z" style="fill:#fff;fill-rule:nonzero;"/></svg>